<svg width="662.4px" height="122.1px" xmlns="http://www.w3.org/2000/svg" viewBox="-81.19376220703123 13.968212890625004 662.3875244140625 122.06357421874999" style="background-color: rgba(0, 0, 0, 0)" preserveAspectRatio="xMidYMid"><defs><linearGradient id="editing-gradient-gradient" x1="0" x2="1" y1="0.5" y2="0.5" gradientUnits="objectBoundingBox"><stop offset="0" stop-color="#00b3ff"></stop><stop offset="1" stop-color="#db00ff"></stop></linearGradient></defs><g><g transform="matrix(1.3,0,0,1.4,-62.4,161.1)"><path d="M 22.5 -43.8 L 8.5 -43.8 L 16.7 -86.1 L 30.7 -86.1 L 22.5 -43.8 Z M 78.2 -42.5 L 78.2 -42.5 L 78.2 -42.5 Q 70.5 -42.5 70.5 -48.6 L 70.5 -48.6 L 70.5 -48.6 Q 70.5 -51.2 71.6 -56.3 L 71.6 -56.3 L 71.6 -56.3 Q 72.7 -61.4 73.1 -63.4 L 73.1 -63.4 L 73.1 -63.4 Q 74 -68.1 74 -69.6 L 74 -69.6 L 74 -69.6 Q 74 -72.8 71.6 -72.8 L 71.6 -72.8 L 71.6 -72.8 Q 70 -72.8 68.4 -70.6 L 68.4 -70.6 L 68.4 -70.6 Q 66.9 -68.4 66.2 -64 L 66.2 -64 L 62.2 -43.8 L 49.7 -42.5 L 53.2 -60 L 53.2 -60 Q 53.8 -62.8 54.3 -66.1 L 54.3 -66.1 L 54.3 -66.1 Q 54.8 -69.4 54.8 -69.9 L 54.8 -69.9 L 54.8 -69.9 Q 54.8 -72.8 52.6 -72.8 L 52.6 -72.8 L 52.6 -72.8 Q 51.2 -72.8 49.6 -70.6 L 49.6 -70.6 L 49.6 -70.6 Q 48 -68.5 47.1 -64 L 47.1 -64 L 43.2 -43.8 L 30.5 -42.5 L 37.3 -76.5 L 47.7 -77.7 L 46.6 -71.3 L 46.6 -71.3 Q 48.3 -74.7 51.3 -76.2 L 51.3 -76.2 L 51.3 -76.2 Q 54.4 -77.7 59.2 -77.7 L 59.2 -77.7 L 59.2 -77.7 Q 62 -77.7 63.8 -76.4 L 63.8 -76.4 L 63.8 -76.4 Q 65.6 -75.1 66.1 -72.9 L 66.1 -72.9 L 66.1 -72.9 Q 67.2 -75.1 70 -76.4 L 70 -76.4 L 70 -76.4 Q 72.8 -77.7 76.2 -77.7 L 76.2 -77.7 L 76.2 -77.7 Q 79.6 -77.7 81.3 -77 L 81.3 -77 L 81.3 -77 Q 83 -76.3 84 -75.1 L 84 -75.1 L 84 -75.1 Q 85.8 -72.8 85.8 -68.7 L 85.8 -68.7 L 85.8 -68.7 Q 85.8 -64.7 84 -56.3 L 84 -56.3 L 84 -56.3 Q 83.2 -52.2 83.2 -50.7 L 83.2 -50.7 L 83.2 -50.7 Q 83.2 -49.2 84 -48.3 L 84 -48.3 L 84 -48.3 Q 84.9 -47.4 86.2 -47.3 L 86.2 -47.3 L 86.2 -47.3 Q 85.5 -45.1 83.3 -43.8 L 83.3 -43.8 L 83.3 -43.8 Q 81.1 -42.5 78.2 -42.5 Z M 93.9 -45.7 L 93.9 -45.7 L 93.9 -45.7 Q 92.4 -47.4 91.7 -50 L 91.7 -50 L 91.7 -50 Q 91 -52.7 91 -56.9 L 91 -56.9 L 91 -56.9 Q 91 -61.2 92.5 -65.1 L 92.5 -65.1 L 92.5 -65.1 Q 94 -69 96.7 -71.9 L 96.7 -71.9 L 96.7 -71.9 Q 102.2 -77.7 111.2 -77.7 L 111.2 -77.7 L 111.2 -77.7 Q 114.5 -77.7 116.9 -76.7 L 116.9 -76.7 L 127.8 -77.7 L 123.1 -52.8 L 123.1 -52.8 Q 122.9 -52 122.9 -50.6 L 122.9 -50.6 L 122.9 -50.6 Q 122.9 -49.2 123.8 -48.3 L 123.8 -48.3 L 123.8 -48.3 Q 124.6 -47.4 125.9 -47.3 L 125.9 -47.3 L 125.9 -47.3 Q 125.3 -45.1 122.9 -43.8 L 122.9 -43.8 L 122.9 -43.8 Q 120.6 -42.5 118 -42.5 L 118 -42.5 L 118 -42.5 Q 115.3 -42.5 113.6 -43.5 L 113.6 -43.5 L 113.6 -43.5 Q 111.8 -44.5 111.3 -46.2 L 111.3 -46.2 L 111.3 -46.2 Q 110.3 -44.6 108.1 -43.6 L 108.1 -43.6 L 108.1 -43.6 Q 105.9 -42.5 103 -42.5 L 103 -42.5 L 103 -42.5 Q 100.1 -42.5 97.7 -43.3 L 97.7 -43.3 L 97.7 -43.3 Q 95.4 -44.1 93.9 -45.7 Z M 107.4 -71.7 L 107.4 -71.7 L 107.4 -71.7 Q 106.6 -70.6 106 -68.6 L 106 -68.6 L 106 -68.6 Q 105.4 -66.7 104.3 -61.5 L 104.3 -61.5 L 104.3 -61.5 Q 103.2 -56.2 103.2 -52.5 L 103.2 -52.5 L 103.2 -52.5 Q 103.2 -48.8 103.8 -47.7 L 103.8 -47.7 L 103.8 -47.7 Q 104.4 -46.6 105.4 -46.6 L 105.4 -46.6 L 105.4 -46.6 Q 107.5 -46.6 109 -48.6 L 109 -48.6 L 109 -48.6 Q 110.5 -50.5 111.1 -54 L 111.1 -54 L 114.4 -72.8 L 114.4 -72.8 Q 113.1 -73.9 111.5 -73.9 L 111.5 -73.9 L 111.5 -73.9 Q 110 -73.9 109 -73.4 L 109 -73.4 L 109 -73.4 Q 108.1 -72.9 107.4 -71.7 Z M 135.6 -70.6 L 135.6 -70.6 L 135.6 -70.6 Q 137.7 -73.6 141 -75.7 L 141 -75.7 L 141 -75.7 Q 144.3 -77.7 148.4 -77.7 L 148.4 -77.7 L 148.4 -77.7 Q 152.4 -77.7 154.3 -76.5 L 154.3 -76.5 L 166.9 -77.7 L 162.5 -53.2 L 162.5 -53.2 Q 160.3 -40.6 155.5 -35.7 L 155.5 -35.7 L 155.5 -35.7 Q 151 -31 142.2 -31 L 142.2 -31 L 142.2 -31 Q 135.4 -31 131.6 -33.1 L 131.6 -33.1 L 131.6 -33.1 Q 127.8 -35.2 127.8 -38.8 L 127.8 -38.8 L 127.8 -38.8 Q 127.8 -41.4 129.7 -42.9 L 129.7 -42.9 L 129.7 -42.9 Q 131.7 -44.4 134.8 -44.4 L 134.8 -44.4 L 134.8 -44.4 Q 137.5 -44.4 139.5 -43.2 L 139.5 -43.2 L 139.5 -43.2 Q 140.8 -42.5 141.3 -41.6 L 141.3 -41.6 L 141.3 -41.6 Q 139.9 -40.4 139.9 -38.3 L 139.9 -38.3 L 139.9 -38.3 Q 139.9 -35.5 142.4 -35.5 L 142.4 -35.5 L 142.4 -35.5 Q 146.7 -35.5 149.1 -45.6 L 149.1 -45.6 L 149.1 -45.6 Q 149.8 -48.4 150.4 -51.1 L 150.4 -51.1 L 150.4 -51.1 Q 147.5 -47.6 141 -47.6 L 141 -47.6 L 141 -47.6 Q 136.5 -47.6 133.8 -49.8 L 133.8 -49.8 L 133.8 -49.8 Q 131.2 -52 131.2 -57.1 L 131.2 -57.1 L 131.2 -57.1 Q 131.2 -60.3 132.3 -63.9 L 132.3 -63.9 L 132.3 -63.9 Q 133.4 -67.5 135.6 -70.6 Z M 143.9 -56.9 L 143.9 -56.9 L 143.9 -56.9 Q 143.9 -52.5 146.1 -52.5 L 146.1 -52.5 L 146.1 -52.5 Q 147.7 -52.5 149.1 -54.2 L 149.1 -54.2 L 149.1 -54.2 Q 150.3 -55.5 150.7 -57.5 L 150.7 -57.5 L 154 -74 L 154 -74 Q 153.7 -74 153.4 -74.2 L 153.4 -74.2 L 153.4 -74.2 Q 152.7 -74.4 151.9 -74.4 L 151.9 -74.4 L 151.9 -74.4 Q 148 -74.4 145.7 -68 L 145.7 -68 L 145.7 -68 Q 143.9 -63 143.9 -56.9 Z M 195.3 -54.6 L 195.3 -54.6 L 195.3 -54.6 Q 196.9 -53.6 196.9 -51.2 L 196.9 -51.2 L 196.9 -51.2 Q 196.9 -48.8 195.7 -47.2 L 195.7 -47.2 L 195.7 -47.2 Q 194.4 -45.7 192.5 -44.7 L 192.5 -44.7 L 192.5 -44.7 Q 188.4 -42.5 184 -42.5 L 184 -42.5 L 184 -42.5 Q 179.5 -42.5 176.9 -43.5 L 176.9 -43.5 L 176.9 -43.5 Q 174.4 -44.5 172.6 -46.3 L 172.6 -46.3 L 172.6 -46.3 Q 169.2 -49.6 169.2 -55.9 L 169.2 -55.9 L 169.2 -55.9 Q 169.2 -65.5 174.5 -71.4 L 174.5 -71.4 L 174.5 -71.4 Q 180.1 -77.7 189.9 -77.7 L 189.9 -77.7 L 189.9 -77.7 Q 196 -77.7 199 -75.2 L 199 -75.2 L 199 -75.2 Q 201.2 -73.3 201.2 -70.1 L 201.2 -70.1 L 201.2 -70.1 Q 201.2 -58.9 181.8 -58.9 L 181.8 -58.9 L 181.8 -58.9 Q 181.5 -57.2 181.5 -55.8 L 181.5 -55.8 L 181.5 -55.8 Q 181.5 -52.8 182.8 -51.7 L 182.8 -51.7 L 182.8 -51.7 Q 184.1 -50.6 186.6 -50.6 L 186.6 -50.6 L 186.6 -50.6 Q 189 -50.6 191.6 -51.7 L 191.6 -51.7 L 191.6 -51.7 Q 194.2 -52.8 195.3 -54.6 Z M 182.2 -61.6 L 182.2 -61.6 L 182.2 -61.6 Q 186.8 -61.6 189.4 -64.4 L 189.4 -64.4 L 189.4 -64.4 Q 192 -67.1 192 -71.4 L 192 -71.4 L 192 -71.4 Q 192 -72.9 191.5 -73.7 L 191.5 -73.7 L 191.5 -73.7 Q 190.9 -74.5 189.8 -74.5 L 189.8 -74.5 L 189.8 -74.5 Q 188.8 -74.5 187.8 -74.1 L 187.8 -74.1 L 187.8 -74.1 Q 186.9 -73.6 185.9 -72.2 L 185.9 -72.2 L 185.9 -72.2 Q 183.6 -69 182.2 -61.6 Z M 222.5 -66.3 L 222.5 -66.3 L 222.5 -66.3 Q 223.4 -68.7 223.4 -70.7 L 223.4 -70.7 L 223.4 -70.7 Q 223.4 -74.5 220.4 -74.5 L 220.4 -74.5 L 220.4 -74.5 Q 218.8 -74.5 217.5 -73 L 217.5 -73 L 217.5 -73 Q 216.1 -71.6 216.1 -69.8 L 216.1 -69.8 L 216.1 -69.8 Q 216.1 -68.5 217.2 -67.5 L 217.2 -67.5 L 217.2 -67.5 Q 218.6 -66.1 222.4 -63.8 L 222.4 -63.8 L 222.4 -63.8 Q 226.2 -61.5 227.6 -59.6 L 227.6 -59.6 L 227.6 -59.6 Q 229.1 -57.7 229.1 -55.1 L 229.1 -55.1 L 229.1 -55.1 Q 229.1 -52.5 227.8 -50.2 L 227.8 -50.2 L 227.8 -50.2 Q 226.6 -47.8 224.3 -46.1 L 224.3 -46.1 L 224.3 -46.1 Q 219.5 -42.5 211.9 -42.5 L 211.9 -42.5 L 211.9 -42.5 Q 207.7 -42.5 204.5 -44.7 L 204.5 -44.7 L 204.5 -44.7 Q 201.3 -46.8 201.3 -49.3 L 201.3 -49.3 L 201.3 -49.3 Q 201.3 -51.8 203.1 -53.3 L 203.1 -53.3 L 203.1 -53.3 Q 204.9 -54.8 207.6 -54.8 L 207.6 -54.8 L 207.6 -54.8 Q 210.3 -54.8 212 -53.7 L 212 -53.7 L 212 -53.7 Q 211.2 -51.6 211.2 -50.2 L 211.2 -50.2 L 211.2 -50.2 Q 211.2 -46 214.7 -46 L 214.7 -46 L 214.7 -46 Q 216.3 -46 217.3 -47 L 217.3 -47 L 217.3 -47 Q 218.3 -47.9 218.3 -49.6 L 218.3 -49.6 L 218.3 -49.6 Q 218.3 -52.8 212.8 -56.3 L 212.8 -56.3 L 212.8 -56.3 Q 208.3 -59.2 207.3 -60.4 L 207.3 -60.4 L 207.3 -60.4 Q 205.6 -62.4 205.6 -65 L 205.6 -65 L 205.6 -65 Q 205.6 -67.6 206.8 -70 L 206.8 -70 L 206.8 -70 Q 208 -72.4 210.3 -74.2 L 210.3 -74.2 L 210.3 -74.2 Q 214.9 -77.7 223.1 -77.7 L 223.1 -77.7 L 223.1 -77.7 Q 227.2 -77.7 229.7 -76.1 L 229.7 -76.1 L 229.7 -76.1 Q 232.1 -74.4 232.1 -71.6 L 232.1 -71.6 L 232.1 -71.6 Q 232.1 -68.8 230.4 -67.2 L 230.4 -67.2 L 230.4 -67.2 Q 228.8 -65.6 225.7 -65.6 L 225.7 -65.6 L 225.7 -65.6 Q 223.6 -65.6 222.5 -66.3 Z M 273.6 -64.4 L 286.5 -65.6 L 286.5 -65.6 Q 281.9 -55.5 281.9 -43.8 L 281.9 -43.8 L 281.9 -43.8 Q 280.2 -42.5 277.7 -42.5 L 277.7 -42.5 L 277.7 -42.5 Q 275.2 -42.5 273.6 -43.7 L 273.6 -43.7 L 273.6 -43.7 Q 272 -44.9 271.6 -46.1 L 271.6 -46.1 L 271.6 -46.1 Q 270 -44.5 267.4 -43.5 L 267.4 -43.5 L 267.4 -43.5 Q 264.8 -42.5 262.1 -42.5 L 262.1 -42.5 L 262.1 -42.5 Q 259.3 -42.5 256.9 -43.4 L 256.9 -43.4 L 256.9 -43.4 Q 254.5 -44.3 252.7 -46.3 L 252.7 -46.3 L 252.7 -46.3 Q 248.6 -50.7 248.6 -58.9 L 248.6 -58.9 L 248.6 -58.9 Q 248.6 -71.7 255.4 -79.4 L 255.4 -79.4 L 255.4 -79.4 Q 262.5 -87.3 275 -87.3 L 275 -87.3 L 275 -87.3 Q 283.6 -87.3 286.7 -82.9 L 286.7 -82.9 L 286.7 -82.9 Q 287.6 -81.5 287.6 -79.8 L 287.6 -79.8 L 287.6 -79.8 Q 287.6 -78.1 286.9 -76.6 L 286.9 -76.6 L 286.9 -76.6 Q 286.2 -75.2 285 -74 L 285 -74 L 285 -74 Q 282.3 -71.5 278.9 -71.5 L 278.9 -71.5 L 278.9 -71.5 Q 277.5 -71.5 276.2 -71.9 L 276.2 -71.9 L 276.2 -71.9 Q 276.5 -73.8 276.5 -76.1 L 276.5 -76.1 L 276.5 -76.1 Q 276.5 -78.3 276.3 -79.3 L 276.3 -79.3 L 276.3 -79.3 Q 276.2 -80.4 275.8 -81.2 L 275.8 -81.2 L 275.8 -81.2 Q 275 -82.9 273.1 -82.9 L 273.1 -82.9 L 273.1 -82.9 Q 271.3 -82.9 269.3 -81 L 269.3 -81 L 269.3 -81 Q 267.3 -79 265.7 -75.8 L 265.7 -75.8 L 265.7 -75.8 Q 262.2 -68.7 262.2 -60 L 262.2 -60 L 262.2 -60 Q 262.2 -56 263.7 -53.2 L 263.7 -53.2 L 263.7 -53.2 Q 265.4 -50.2 268.3 -50.2 L 268.3 -50.2 L 268.3 -50.2 Q 269.3 -50.2 270.3 -50.7 L 270.3 -50.7 L 270.3 -50.7 Q 271.2 -51.2 271.6 -51.6 L 271.6 -51.6 L 273.6 -64.4 Z M 292.5 -45.7 L 292.5 -45.7 L 292.5 -45.7 Q 291 -47.4 290.3 -50 L 290.3 -50 L 290.3 -50 Q 289.6 -52.7 289.6 -56.9 L 289.6 -56.9 L 289.6 -56.9 Q 289.6 -61.2 291.1 -65.1 L 291.1 -65.1 L 291.1 -65.1 Q 292.6 -69 295.2 -71.9 L 295.2 -71.9 L 295.2 -71.9 Q 300.8 -77.7 309.8 -77.7 L 309.8 -77.7 L 309.8 -77.7 Q 313.1 -77.7 315.5 -76.7 L 315.5 -76.7 L 326.4 -77.7 L 321.7 -52.8 L 321.7 -52.8 Q 321.5 -52 321.5 -50.6 L 321.5 -50.6 L 321.5 -50.6 Q 321.5 -49.2 322.4 -48.3 L 322.4 -48.3 L 322.4 -48.3 Q 323.2 -47.4 324.5 -47.3 L 324.5 -47.3 L 324.5 -47.3 Q 323.9 -45.1 321.5 -43.8 L 321.5 -43.8 L 321.5 -43.8 Q 319.2 -42.5 316.6 -42.5 L 316.6 -42.5 L 316.6 -42.5 Q 313.9 -42.5 312.2 -43.5 L 312.2 -43.5 L 312.2 -43.5 Q 310.4 -44.5 309.9 -46.2 L 309.9 -46.2 L 309.9 -46.2 Q 308.9 -44.6 306.7 -43.6 L 306.7 -43.6 L 306.7 -43.6 Q 304.5 -42.5 301.6 -42.5 L 301.6 -42.5 L 301.6 -42.5 Q 298.7 -42.5 296.3 -43.3 L 296.3 -43.3 L 296.3 -43.3 Q 294 -44.1 292.5 -45.7 Z M 306 -71.7 L 306 -71.7 L 306 -71.7 Q 305.2 -70.6 304.6 -68.6 L 304.6 -68.6 L 304.6 -68.6 Q 304 -66.7 302.9 -61.5 L 302.9 -61.5 L 302.9 -61.5 Q 301.8 -56.2 301.8 -52.5 L 301.8 -52.5 L 301.8 -52.5 Q 301.8 -48.8 302.4 -47.7 L 302.4 -47.7 L 302.4 -47.7 Q 303 -46.6 304 -46.6 L 304 -46.6 L 304 -46.6 Q 306.1 -46.6 307.6 -48.6 L 307.6 -48.6 L 307.6 -48.6 Q 309.1 -50.5 309.6 -54 L 309.6 -54 L 313 -72.8 L 313 -72.8 Q 311.7 -73.9 310.1 -73.9 L 310.1 -73.9 L 310.1 -73.9 Q 308.6 -73.9 307.6 -73.4 L 307.6 -73.4 L 307.6 -73.4 Q 306.7 -72.9 306 -71.7 Z M 345.2 -47.3 L 345.2 -47.3 L 345.2 -47.3 Q 343.2 -42.5 336.8 -42.5 L 336.8 -42.5 L 336.8 -42.5 Q 333.6 -42.5 331.6 -44.8 L 331.6 -44.8 L 331.6 -44.8 Q 329.9 -46.6 329.9 -48.8 L 329.9 -48.8 L 329.9 -48.8 Q 329.9 -53.6 332.2 -64 L 332.2 -64 L 336.8 -88.6 L 349.8 -89.9 L 343.6 -57.5 L 343.6 -57.5 Q 342.5 -52.8 342.5 -51.1 L 342.5 -51.1 L 342.5 -51.1 Q 342.5 -47.5 345.2 -47.3 Z M 365.9 -47.3 L 365.9 -47.3 L 365.9 -47.3 Q 363.9 -42.5 357.6 -42.5 L 357.6 -42.5 L 357.6 -42.5 Q 354.4 -42.5 352.3 -44.8 L 352.3 -44.8 L 352.3 -44.8 Q 350.7 -46.6 350.7 -48.8 L 350.7 -48.8 L 350.7 -48.8 Q 350.7 -53.6 352.9 -64 L 352.9 -64 L 357.6 -88.6 L 370.6 -89.9 L 364.4 -57.5 L 364.4 -57.5 Q 363.3 -52.8 363.3 -51.1 L 363.3 -51.1 L 363.3 -51.1 Q 363.3 -47.5 365.9 -47.3 Z M 397.3 -54.6 L 397.3 -54.6 L 397.3 -54.6 Q 398.9 -53.6 398.9 -51.2 L 398.9 -51.2 L 398.9 -51.2 Q 398.9 -48.8 397.6 -47.2 L 397.6 -47.2 L 397.6 -47.2 Q 396.4 -45.7 394.4 -44.7 L 394.4 -44.7 L 394.4 -44.7 Q 390.4 -42.5 385.9 -42.5 L 385.9 -42.5 L 385.9 -42.5 Q 381.5 -42.5 378.9 -43.5 L 378.9 -43.5 L 378.9 -43.5 Q 376.3 -44.5 374.6 -46.3 L 374.6 -46.3 L 374.6 -46.3 Q 371.2 -49.6 371.2 -55.9 L 371.2 -55.9 L 371.2 -55.9 Q 371.2 -65.5 376.5 -71.4 L 376.5 -71.4 L 376.5 -71.4 Q 382.1 -77.7 391.9 -77.7 L 391.9 -77.7 L 391.9 -77.7 Q 398 -77.7 401 -75.2 L 401 -75.2 L 401 -75.2 Q 403.2 -73.3 403.2 -70.1 L 403.2 -70.1 L 403.2 -70.1 Q 403.2 -58.9 383.8 -58.9 L 383.8 -58.9 L 383.8 -58.9 Q 383.5 -57.2 383.5 -55.8 L 383.5 -55.8 L 383.5 -55.8 Q 383.5 -52.8 384.8 -51.7 L 384.8 -51.7 L 384.8 -51.7 Q 386.1 -50.6 388.6 -50.6 L 388.6 -50.6 L 388.6 -50.6 Q 391 -50.6 393.6 -51.7 L 393.6 -51.7 L 393.6 -51.7 Q 396.2 -52.8 397.3 -54.6 Z M 384.2 -61.6 L 384.2 -61.6 L 384.2 -61.6 Q 388.8 -61.6 391.4 -64.4 L 391.4 -64.4 L 391.4 -64.4 Q 394 -67.1 394 -71.4 L 394 -71.4 L 394 -71.4 Q 394 -72.9 393.5 -73.7 L 393.5 -73.7 L 393.5 -73.7 Q 392.9 -74.5 391.8 -74.5 L 391.8 -74.5 L 391.8 -74.5 Q 390.7 -74.5 389.8 -74.1 L 389.8 -74.1 L 389.8 -74.1 Q 388.9 -73.6 387.9 -72.2 L 387.9 -72.2 L 387.9 -72.2 Q 385.6 -69 384.2 -61.6 Z M 425.4 -61.8 L 425.4 -61.8 L 425.4 -61.8 Q 427.7 -65.9 427.7 -70.1 L 427.7 -70.1 L 427.7 -70.1 Q 427.7 -72.8 425.7 -72.8 L 425.7 -72.8 L 425.7 -72.8 Q 424.2 -72.8 422.6 -70.2 L 422.6 -70.2 L 422.6 -70.2 Q 420.9 -67.6 420.4 -64.2 L 420.4 -64.2 L 417.1 -43.8 L 403.9 -42.5 L 410.4 -76.5 L 420.9 -77.7 L 419.8 -71.3 L 419.8 -71.3 Q 422.9 -77.7 430 -77.7 L 430 -77.7 L 430 -77.7 Q 433.7 -77.7 435.7 -75.8 L 435.7 -75.8 L 435.7 -75.8 Q 437.7 -73.9 437.7 -70 L 437.7 -70 L 437.7 -70 Q 437.7 -66 435.1 -63.5 L 435.1 -63.5 L 435.1 -63.5 Q 432.5 -61 428.1 -61 L 428.1 -61 L 428.1 -61 Q 426.2 -61 425.4 -61.8 Z M 459.1 -51.1 L 459.1 -51.1 L 459.1 -51.1 Q 455.8 -47.6 449.7 -47.6 L 449.7 -47.6 L 449.7 -47.6 Q 442.1 -47.6 440.5 -53.2 L 440.5 -53.2 L 440.5 -53.2 Q 440 -54.8 440 -56.7 L 440 -56.7 L 440 -56.7 Q 440 -58.5 440.3 -60.5 L 440.3 -60.5 L 443.3 -76.5 L 456.3 -77.7 L 452.8 -59.1 L 452.8 -59.1 Q 452.7 -58.3 452.5 -57.4 L 452.5 -57.4 L 452.5 -57.4 Q 452.3 -56.5 452.3 -55.6 L 452.3 -55.6 L 452.3 -55.6 Q 452.3 -54.6 452.6 -54 L 452.6 -54 L 452.6 -54 Q 452.9 -53.4 453.4 -53 L 453.4 -53 L 453.4 -53 Q 454.2 -52.5 455.5 -52.5 L 455.5 -52.5 L 455.5 -52.5 Q 456.9 -52.5 458.1 -54.2 L 458.1 -54.2 L 458.1 -54.2 Q 459.3 -55.9 459.9 -58.7 L 459.9 -58.7 L 463.4 -76.5 L 476 -77.7 L 471.2 -52.6 L 471.2 -52.6 Q 468.8 -40.3 464 -35.4 L 464 -35.4 L 464 -35.4 Q 461.5 -32.9 458.2 -32 L 458.2 -32 L 458.2 -32 Q 455 -31 450.8 -31 L 450.8 -31 L 450.8 -31 Q 444.1 -31 440.3 -33.1 L 440.3 -33.1 L 440.3 -33.1 Q 436.4 -35.2 436.4 -38.7 L 436.4 -38.7 L 436.4 -38.7 Q 436.4 -41.3 438.4 -42.8 L 438.4 -42.8 L 438.4 -42.8 Q 440.4 -44.3 443.5 -44.3 L 443.5 -44.3 L 443.5 -44.3 Q 446.2 -44.3 448.2 -43.2 L 448.2 -43.2 L 448.2 -43.2 Q 449.4 -42.5 450 -41.6 L 450 -41.6 L 450 -41.6 Q 448.5 -40.3 448.5 -38.2 L 448.5 -38.2 L 448.5 -38.2 Q 448.5 -35.4 451.1 -35.4 L 451.1 -35.4 L 451.1 -35.4 Q 455.3 -35.4 457.7 -45.1 L 457.7 -45.1 L 457.7 -45.1 Q 458.4 -48 459.1 -51.1 Z" fill="url(#editing-gradient-gradient)"></path></g></g><style>text {
  font-size: 64px;
  font-family: Arial Black;
  dominant-baseline: central;
  text-anchor: middle;
}</style></svg>